{"title":"The.Green.Inferno.2015.WEBRiP.XViD.AC3.5.1.ReLeNTLesS","uid":12583433,"size":1451967243,"categoryP":"video","categoryS":"movies","magnet":"?xt=urn:btih:5bb6d1e32ae01a7732f5d7fb43648c9695a79ce8&amp;dn=The.Green.Inferno.2015.WEBRiP.XViD.AC3.5.1.ReLeNTLesS&amp;tr=udp%3A%2F%2Ftracker.leechers-paradise.org%3A6969&amp;tr=udp%3A%2F%2Fzer0day.ch%3A1337&amp;tr=udp%3A%2F%2Fopen.demonii.com%3A1337&amp;tr=udp%3A%2F%2Ftracker.coppersurfer.tk%3A6969&amp;tr=udp%3A%2F%2Fexodus.desync.com%3A6969","seeders":0,"leechers":1,"uploader":"TvTeam","files":4,"time":1444982957,"description":"------------------------------------------------------------------------\r\n\r  https://www.torrenting.com\r\n\r\nSign up is OPEN - for time being. Come and have fun.\r\n\r\n------------------------------------------------------------------------P0STER\r\n[img]http://i.imgur.com/AmwgYtm.png[/img]\r\n\r\niMDB: http://www.imdb.com/title/tt2403021/\r\n\r\nGeneral\r\nComplete name               : The.Green.Inferno.2015.WEBRiP.XViD.AC3.5.1.ReLeNTLesS.avi\r\nFormat                      : AVI\r\nFormat/Info                 : Audio Video Interleave\r\nFile size                   : 1.34 GiB\r\nDuration                    : 1h 40mn\r\nOverall bit rate            : 1 902 Kbps\r\n\r\nVideo\r\nID                          : 0\r\nFormat                      : MPEG-4 Visual\r\nFormat profile              : Advanced   \r\nFormat settings, BVOP       : 1\r\nFormat settings, QPel       : No\r\nFormat settings, GMC        : No warppoints\r\nFormat settings, Matrix     : Default (H.263)\r\nMuxing mode                 : Packed bitstream\r\nCodec ID                    : XVID\r\nCodec ID/Hint               : XviD\r\nDuration                    : 1h 40mn\r\nBit rate                    : 1 702 Kbps\r\nWidth                       : 720 pixels\r\nHeight                      : 304 pixels\r\nDisplay aspect ratio        : 2.35:1\r\nFrame rate                  : 23.976 fps\r\nColor space                 : YUV\r\nChroma subsampling          : 4:2:0\r\nBit depth                   : 8 bits\r\nScan type                   : Progressive\r\nCompression mode            : Lossy\r\nBits/(Pixel*Frame)          : 0.324\r\nStream size                 : 1.20 GiB (90%)\r\nWriting library             : XviD 1.2.1 (UTC 2008-12-04)\r\n\r\nAudio\r\nID                          : 1\r\nFormat                      : AC-3\r\nFormat/Info                 : Audio Coding 3\r\nMode extension              : CM (complete main)\r\nFormat settings, Endianness : Big\r\nCodec ID                    : 2000\r\nDuration                    : 1h 40mn\r\nBit rate mode               : Constant\r\nBit rate                    : 192 Kbps\r\nChannel(s)                  : 6 channels\r\nChannel positions           : Front: L C R, Side: L R, LFE\r\nSampling rate               : 48.0 KHz\r\nCompression mode            : Lossy\r\nStream size                 : 138 MiB (10%)\r\nAlignment                   : Aligned on interleaves\r\nInterleave, duration        : 64 ms (1.54 video frames)\r\nInterleave, preload duratio : 192 ms\r\nTitle                       : The.Green.Inferno.2015.ReLeNTLesS.audio.AC3.5.1.English_new\r\nSample Included             : Yes\r\nSource                      : PLAYNOW Thanks\r\n\r\nPL0T\r\nA group of student activists travels to the Amazon to save the rain forest and soon discover that they are not alone, and that no good deed goes unpunished.\r\n\r\nCAST\r\nDirector: Eli Roth\r\nWriters: Guillermo Amoedo, Eli Roth\r\nStars: Lorenza Izzo, Ariel Levy, Aaron Burns\r\n\r\nN0TE\r\nResized, Degrained and sharpend.\r\n\r\nSCREENS\r\n[img]http://i.imgur.com/X3VMCyr.png[/img]\r\n[img]http://i.imgur.com/UuqDkTh.png[/img]\r\n[img]http://i.imgur.com/FWy5Xwb.png[/img]\r\n[img]http://i.imgur.com/X6Mxsl7.png[/img]\r\n[img]http://i.imgur.com/BtLxoQz.png[/img]\r\n[img]http://i.imgur.com/GfGlkQF.png[/img]\r\n[img]http://i.imgur.com/3URV0ic.png[/img]\r\n[img]http://i.imgur.com/6cR7jBV.png[/img]\r\n\r\nTRAiLER\r\n\r\nGREETZ\r\n\r\n\r\nHIVE-CM8, Blackjesus, M0RPH, M00SE, MiLLENiUM,\r\n\r\nMANiX, TiTAN, Anonymous, TuX, \r\n\r\nACAB, KingStoner, FooKas, 4PlayHD, \r\n\r\nSoZE, GodFather, Cld.... \r\n\r\nKeep up the good work guyz","torrent":{"xt":"urn:btih:5bb6d1e32ae01a7732f5d7fb43648c9695a79ce8","amp;dn":"The.Green.Inferno.2015.WEBRiP.XViD.AC3.5.1.ReLeNTLesS","amp;tr":["udp%3A%2F%2Ftracker.leechers-paradise.org%3A6969","udp%3A%2F%2Fzer0day.ch%3A1337","udp%3A%2F%2Fopen.demonii.com%3A1337","udp%3A%2F%2Ftracker.coppersurfer.tk%3A6969","udp%3A%2F%2Fexodus.desync.com%3A6969"],"infoHash":"5bb6d1e32ae01a7732f5d7fb43648c9695a79ce8","infoHashBuffer":{"type":"Buffer","data":[91,182,209,227,42,224,26,119,50,245,215,251,67,100,140,150,149,167,156,232]},"announce":[],"urlList":[]}}